<svg width="21" height="25" viewBox="0 0 21 25" fill="none" xmlns="http://www.w3.org/2000/svg">
<path d="M17.92 7.19015C17.92 6.63015 17.46 6.15015 16.9 6.15015H3.75999C3.19999 6.15015 2.73999 6.63015 2.73999 7.19015L10.38 12.6701L17.92 7.19015Z" fill="#14BE5A"/>
<path d="M2.67999 9.13013V14.5501L5.83999 11.3901L2.67999 9.13013Z" fill="#14BE5A"/>
<path d="M17.88 14.5501V9.13013L14.74 11.4101L17.88 14.5501Z" fill="#14BE5A"/>
<path d="M10.4 14.59L7.15999 12.29L2.79999 16.63C2.91999 17.07 3.29999 17.35 3.77999 17.35H4.27999V20.69L4.31999 20.67L8.85999 17.35H16.92C17.38 17.35 17.78 17.07 17.9 16.63L13.54 12.29L10.4 14.59Z" fill="#14BE5A"/>
</svg>
