<svg width="21" height="25" viewBox="0 0 21 25" fill="none" xmlns="http://www.w3.org/2000/svg">
<path d="M12.355 11.0752C12.355 11.446 12.245 11.8085 12.039 12.1169C11.833 12.4252 11.5401 12.6656 11.1975 12.8075C10.8549 12.9494 10.4779 12.9865 10.1142 12.9142C9.75047 12.8418 9.41638 12.6632 9.15415 12.401C8.89193 12.1388 8.71336 11.8047 8.64101 11.441C8.56866 11.0773 8.60579 10.7003 8.74771 10.3577C8.88962 10.0151 9.12994 9.72222 9.43829 9.51619C9.74663 9.31016 10.1091 9.2002 10.48 9.2002C10.9773 9.2002 11.4542 9.39774 11.8058 9.74937C12.1574 10.101 12.355 10.5779 12.355 11.0752ZM17.355 11.0752C17.355 14.7377 11.1925 21.2314 10.93 21.5064C10.8717 21.5669 10.8018 21.615 10.7245 21.6479C10.6471 21.6808 10.564 21.6977 10.48 21.6977C10.396 21.6977 10.3128 21.6808 10.2355 21.6479C10.1582 21.615 10.0883 21.5669 10.03 21.5064C9.76748 21.2314 3.60498 14.7377 3.60498 11.0752C3.60498 9.25183 4.32931 7.50315 5.61862 6.21384C6.90793 4.92452 8.65662 4.2002 10.48 4.2002C12.3033 4.2002 14.052 4.92452 15.3413 6.21384C16.6307 7.50315 17.355 9.25183 17.355 11.0752ZM13.605 11.0752C13.605 10.4571 13.4217 9.85294 13.0783 9.33904C12.7349 8.82514 12.2469 8.4246 11.6759 8.18807C11.1048 7.95155 10.4765 7.88966 9.87032 8.01024C9.26413 8.13082 8.70731 8.42845 8.27027 8.86549C7.83323 9.30253 7.5356 9.85935 7.41503 10.4655C7.29445 11.0717 7.35633 11.7001 7.59286 12.2711C7.82938 12.8421 8.22992 13.3302 8.74382 13.6735C9.25773 14.0169 9.86191 14.2002 10.48 14.2002C11.3088 14.2002 12.1036 13.871 12.6897 13.2849C13.2757 12.6989 13.605 11.904 13.605 11.0752Z" fill="#14BE5A"/>
</svg>
