<svg width="17" height="19" viewBox="0 0 17 19" fill="none" xmlns="http://www.w3.org/2000/svg">
<path d="M16.5 14.9703L16.4 14.7703C16.12 14.1103 12.68 13.1103 12.4 13.0903L12.18 13.1103C11.76 13.1903 11.3 13.5703 10.4 14.3503C10.22 14.5103 9.97997 14.5503 9.75997 14.4303C8.57998 13.7703 7.13998 12.4503 6.41997 11.6503C5.63998 10.7903 4.69998 9.37027 4.25997 8.23027C4.17997 8.01027 4.25997 7.77027 4.41997 7.61027C5.43997 6.69027 5.87997 6.25027 5.91997 5.77027C5.93997 5.49027 5.33997 1.95027 4.71997 1.61027L4.53997 1.49027C4.13997 1.23027 3.53997 0.85027 2.87998 0.99027C2.71997 1.03027 2.55998 1.09027 2.41998 1.17027C1.97998 1.45027 0.879975 2.21027 0.379975 3.19027C0.0799751 3.81027 -0.060025 9.43027 4.13997 14.1703C8.29997 18.8703 13.44 19.0703 14.2 18.9103H14.22L14.28 18.8903C15.32 18.5103 16.2 17.5303 16.54 17.1103C17.16 16.3703 16.74 15.4703 16.5 14.9703Z" fill="#14BE5A"/>
</svg>
