<svg width="30" height="31" viewBox="0 0 30 31" fill="none" xmlns="http://www.w3.org/2000/svg">
<g clip-path="url(#clip0_2311_62)">
<path fill-rule="evenodd" clip-rule="evenodd" d="M30 0.880005H0V30.88H30V0.880005ZM15.8562 24.3175H12.7859V15.8841H11.25V13.249H12.7859V11.1338H12.7915C12.8451 9.30476 13.4629 7.56344 16.4694 7.45432V7.4425H18.391V10.0776H16.8232C16.2543 10.0776 15.8562 10.7239 15.8562 11.3395V13.249H18.6151L18.1596 15.8841H15.8562V24.3175Z" fill="#14BE5A"/>
<path d="M12.7859 24.3175H15.8562V15.8841H18.1596L18.6151 13.249H15.8562V11.3395C15.8562 10.7239 16.2543 10.0776 16.8232 10.0776H18.391V7.4425H16.4694V7.45432C13.4629 7.56344 12.8451 9.30475 12.7915 11.1338H12.7859V13.249H11.25V15.8841H12.7859V24.3175Z" fill="white"/>
</g>
<defs>
<clipPath id="clip0_2311_62">
<rect y="0.880005" width="30" height="30" rx="15" fill="white"/>
</clipPath>
</defs>
</svg>
