<svg width="1317" height="297" viewBox="0 0 1317 297" fill="none" xmlns="http://www.w3.org/2000/svg">
<path d="M343.498 66.9024C342.773 66.3791 341.939 66.0256 341.059 65.8682C340.178 65.7107 339.273 65.7532 338.411 65.9927C331.185 67.9469 323.84 69.4345 316.423 70.4461C305.235 71.9983 295.118 77.9084 288.284 86.8843C281.45 95.8602 278.455 107.172 279.953 118.346C276.658 120.777 272.339 135.808 271.612 128.656C269.037 121.525 265.389 114.826 260.794 108.791C262.306 98.9521 260.704 88.888 256.213 80.001C252.804 72.2065 247.421 65.4321 240.593 60.3444C233.765 55.2568 225.727 52.0313 217.271 50.9854C208.088 49.7237 198.995 47.8827 190.046 45.4736C189.184 45.2413 188.282 45.2038 187.404 45.3638C186.526 45.5238 185.695 45.8773 184.971 46.3986C184.248 46.9198 183.649 47.5956 183.221 48.3768C182.792 49.1579 182.543 50.0248 182.492 50.9141C181.009 101.364 216.919 116.199 247.14 117.9C255.033 115.771 256.35 124.178 260.377 132.616C269.075 158.599 266.865 175.241 260.163 198.686C240.017 181.652 216.546 168.982 191.238 161.477C191.266 152.785 188.982 144.242 184.618 136.72C180.255 129.199 173.968 122.969 166.402 118.667C176.696 87.3679 173.026 0.54107 141.93 0C122.396 0 112.179 37.5835 112.179 74.7152C112.045 89.5246 113.817 104.29 117.451 118.649C109.883 122.949 103.595 129.179 99.2315 136.701C94.8677 144.223 92.5845 152.767 92.6156 161.459C61.7929 168.16 5.75923 204.691 0.75516 228.807C-3.02172 243.672 7.90383 250.563 21.6055 250.563C27.046 250.447 32.4568 249.728 37.7376 248.416C54.6004 268.513 76.9328 283.306 102.037 291.008C127.141 298.711 153.943 298.993 179.204 291.821C205.391 284.455 228.716 269.317 246.086 248.416C257.923 251.526 275.818 252.578 281.829 241.876C287.679 230.965 279.446 218.2 269.611 207.652C275.116 192.806 277.94 177.104 277.951 161.274C278.316 153.442 279.844 145.708 282.484 138.324C284.784 134.054 285.987 125.481 292.218 127.056C298.385 126.817 304.497 125.806 310.412 124.048C334.241 116.425 347.168 97.2439 345.917 71.4152C345.876 70.5307 345.637 69.6666 345.219 68.8858C344.801 68.105 344.213 67.4274 343.498 66.9024ZM211.605 94.0153C206.286 89.8022 201.98 84.4529 199.003 78.3606C196.027 72.2683 194.456 65.5878 194.407 58.8101C201.472 60.4966 208.621 61.8164 215.823 62.7641C238.705 66.8072 245.329 81.5231 248.993 95.9774C241.049 89.0133 232.239 83.1 222.781 78.3837C221.392 77.6945 219.788 77.5734 218.311 78.0462C216.833 78.519 215.599 79.5484 214.87 80.9155C214.141 82.2825 213.976 83.8794 214.409 85.3664C214.841 86.8534 215.838 88.1133 217.187 88.8781C226.139 93.3246 234.44 98.9697 241.862 105.657C230.901 104.607 220.436 100.581 211.605 94.0153ZM179.275 159.074C174.706 158.451 170.073 158.467 165.508 159.122C165.207 155.729 164.175 152.442 162.483 149.484C160.79 146.527 158.477 143.969 155.703 141.986C158.55 138.371 160.861 134.366 162.565 130.095C167.417 133.295 171.454 137.581 174.354 142.612C177.255 147.643 178.94 153.28 179.275 159.074ZM158.651 194.69C153.451 197.248 147.73 198.578 141.933 198.578C136.135 198.578 130.414 197.248 125.214 194.69C126.363 193.15 127.418 191.652 128.311 190.225C129.82 187.904 131.078 185.431 132.064 182.846C135.152 184.295 138.521 185.046 141.933 185.046C145.344 185.046 148.713 184.295 151.801 182.846C153.505 187.1 155.812 191.089 158.651 194.69ZM130.057 161.292C130.28 158.299 131.628 155.501 133.832 153.459C136.036 151.417 138.931 150.282 141.938 150.282C144.946 150.282 147.841 151.417 150.045 153.459C152.249 155.501 153.597 158.299 153.82 161.292C153.82 164.438 152.568 167.455 150.339 169.68C148.11 171.904 145.088 173.154 141.935 173.154C138.783 173.154 135.761 171.904 133.532 169.68C131.303 167.455 130.051 164.438 130.051 161.292H130.057ZM141.93 11.8916C147.988 11.8916 159.771 34.0636 159.771 74.7152C159.999 89.9679 157.94 105.169 153.665 119.814C149.739 131.979 144.861 137.527 141.93 137.539C136.145 135.642 134.185 130.255 130.2 119.808C125.924 105.165 123.866 89.9659 124.094 74.7152C124.094 34.0636 135.877 11.8916 141.93 11.8916ZM121.3 130.112C123.004 134.384 125.315 138.389 128.162 142.004C125.389 143.987 123.078 146.544 121.385 149.5C119.693 152.457 118.66 155.743 118.357 159.134C113.912 158.492 109.399 158.468 104.947 159.063C105.099 153.272 106.669 147.606 109.519 142.559C112.369 137.513 116.414 133.24 121.3 130.112ZM15.8448 238.065C15.1411 238.015 14.4602 237.794 13.862 237.421C13.2638 237.047 12.7665 236.533 12.4137 235.923C12.0609 235.314 11.8633 234.627 11.8384 233.923C11.8134 233.219 11.9618 232.52 12.2705 231.887C17.4831 209.941 84.2636 166.483 116.194 170.8C126.161 172.072 121.556 180.693 111.822 192.151C93.8309 214.573 34.2765 244.51 15.8448 238.065ZM50.3074 244.807C61.2023 240.958 71.7113 236.097 81.696 230.288C94.6295 222.995 106.567 214.068 117.213 203.728C119.108 204.827 121.074 205.798 123.099 206.635C123.068 232.057 116.335 257.023 103.577 279.025C83.1148 272.493 64.7405 260.69 50.3074 244.807ZM115.396 282.266C127.733 260.118 134.457 235.294 134.983 209.959C139.587 210.666 144.272 210.666 148.876 209.959C149.106 235.338 155.849 260.234 168.463 282.272C150.983 286.101 132.879 286.107 115.396 282.29V282.266ZM180.282 279.002C167.525 256.999 160.792 232.033 160.76 206.611C162.787 205.774 164.755 204.803 166.652 203.704C177.298 214.044 189.235 222.971 202.169 230.264C212.152 236.075 222.661 240.934 233.558 244.778C219.128 260.673 200.751 272.487 180.282 279.025V279.002ZM271.553 235.924C254.194 250.878 162.303 202.824 162.548 173.172C188.872 158.153 276.086 214.157 271.553 235.948V235.924ZM320.962 105.312C314.862 109.992 307.701 113.102 300.112 114.368C305.099 110.294 310.507 106.762 316.244 103.832C317.063 103.541 317.81 103.078 318.435 102.475C319.061 101.873 319.55 101.143 319.869 100.336C320.189 99.5296 320.333 98.6639 320.29 97.7972C320.247 96.9306 320.019 96.0831 319.622 95.3115C318.88 93.9203 317.614 92.8802 316.104 92.4197C314.594 91.9592 312.962 92.1161 311.568 92.8559C304.858 96.2387 298.534 100.335 292.707 105.075C293.323 102.902 294.141 100.792 295.149 98.772C297.215 94.3124 300.389 90.4545 304.37 87.5654C308.351 84.6763 313.007 82.8521 317.894 82.2664C323.696 81.5529 329.541 80.3756 333.979 79.3648C333.759 84.3602 332.486 89.2532 330.243 93.7243C328 98.1953 324.838 102.144 320.962 105.312Z" fill="white" fill-opacity="0.8"/>
<path d="M414 296.465V254.535H440.889V259.055H419.307V272.913H439.533V277.433H419.307V291.945H440.889V296.465H414Z" fill="white" fill-opacity="0.7"/>
<path d="M470.599 296.465V254.535H474.845L500.909 289.268H499.493V254.535H504.623V296.465H500.437L474.373 261.732H475.73V296.465H470.599Z" fill="white" fill-opacity="0.7"/>
<path d="M536.528 296.465V254.535H563.417V259.055H541.835V272.913H562.06V277.433H541.835V291.945H563.417V296.465H536.528Z" fill="white" fill-opacity="0.7"/>
<path d="M593.127 296.465V254.535H610.345C614.788 254.535 618.208 255.586 620.606 257.687C623.043 259.789 624.262 262.723 624.262 266.49C624.262 268.988 623.711 271.109 622.611 272.853C621.51 274.598 619.957 275.926 617.952 276.838C615.987 277.75 613.687 278.206 611.053 278.206L612.055 277.373H613.471C615.082 277.373 616.517 277.79 617.775 278.622C619.033 279.415 620.075 280.724 620.901 282.548L626.797 296.465H620.724L615.004 282.667C614.335 280.962 613.353 279.852 612.055 279.336C610.797 278.821 609.205 278.563 607.279 278.563H598.611V296.465H593.127ZM598.611 274.281H609.52C612.547 274.281 614.847 273.627 616.419 272.318C618.031 271.01 618.837 269.107 618.837 266.609C618.837 264.15 618.031 262.287 616.419 261.018C614.847 259.71 612.547 259.055 609.52 259.055H598.611V274.281Z" fill="white" fill-opacity="0.7"/>
<path d="M674.94 297C670.38 297 666.547 296.148 663.441 294.443C660.336 292.698 657.997 290.22 656.424 287.008C654.891 283.797 654.124 279.97 654.124 275.53C654.124 271.089 654.95 267.263 656.601 264.051C658.252 260.84 660.611 258.361 663.677 256.617C666.783 254.872 670.498 254 674.822 254C677.849 254 680.483 254.436 682.724 255.308C684.964 256.181 686.969 257.45 688.738 259.115L686.674 263.516C685.416 262.406 684.198 261.514 683.018 260.84C681.839 260.166 680.601 259.69 679.303 259.412C678.045 259.095 676.552 258.936 674.822 258.936C669.987 258.936 666.291 260.384 663.736 263.278C661.181 266.172 659.903 270.276 659.903 275.589C659.903 280.982 661.142 285.085 663.618 287.9C666.095 290.716 669.947 292.123 675.176 292.123C677.023 292.123 678.832 291.945 680.601 291.588C682.37 291.231 684.06 290.716 685.672 290.041L684.552 292.837V278.622H674.114V274.34H689.269V293.967C687.5 294.879 685.318 295.612 682.724 296.167C680.129 296.722 677.534 297 674.94 297Z" fill="white" fill-opacity="0.7"/>
<path d="M730.06 296.465V276.838L731.239 280.466L713.902 254.535H720.271L733.598 274.994H732.241L745.568 254.535H751.759L734.423 280.466L735.543 276.838V296.465H730.06Z" fill="white" fill-opacity="0.7"/>
<path d="M828.887 297C825.546 297 822.538 296.564 819.865 295.692C817.192 294.819 814.873 293.59 812.907 292.004L814.794 287.603C816.17 288.634 817.566 289.506 818.981 290.22C820.396 290.894 821.909 291.409 823.521 291.766C825.172 292.083 826.961 292.242 828.887 292.242C832.307 292.242 834.823 291.627 836.435 290.398C838.086 289.13 838.912 287.464 838.912 285.402C838.912 283.618 838.342 282.25 837.202 281.299C836.062 280.347 834.076 279.594 831.246 279.039L824.936 277.73C821.123 276.937 818.273 275.649 816.386 273.864C814.539 272.041 813.615 269.582 813.615 266.49C813.615 263.992 814.263 261.811 815.561 259.947C816.897 258.044 818.725 256.577 821.045 255.546C823.403 254.515 826.155 254 829.3 254C832.209 254 834.902 254.436 837.379 255.308C839.855 256.181 841.939 257.469 843.629 259.174L841.742 263.397C839.973 261.771 838.067 260.602 836.022 259.888C834.017 259.135 831.737 258.758 829.182 258.758C826.077 258.758 823.62 259.432 821.811 260.78C820.003 262.128 819.099 263.952 819.099 266.252C819.099 268.076 819.669 269.523 820.809 270.593C821.949 271.624 823.836 272.417 826.47 272.972L832.779 274.221C836.789 275.014 839.718 276.263 841.565 277.968C843.452 279.673 844.396 282.032 844.396 285.046C844.396 287.425 843.767 289.526 842.509 291.35C841.251 293.134 839.462 294.522 837.143 295.513C834.823 296.504 832.072 297 828.887 297Z" fill="white" fill-opacity="0.7"/>
<path d="M872.46 275.47C872.46 271.069 873.227 267.263 874.76 264.051C876.293 260.84 878.494 258.361 881.364 256.617C884.273 254.872 887.732 254 891.742 254C895.713 254 899.133 254.872 902.003 256.617C904.912 258.361 907.152 260.84 908.725 264.051C910.297 267.263 911.084 271.049 911.084 275.411C911.084 279.812 910.297 283.638 908.725 286.889C907.152 290.101 904.912 292.599 902.003 294.383C899.133 296.128 895.713 297 891.742 297C887.732 297 884.293 296.128 881.423 294.383C878.553 292.599 876.332 290.101 874.76 286.889C873.227 283.638 872.46 279.832 872.46 275.47ZM878.239 275.47C878.239 280.704 879.379 284.788 881.659 287.722C883.939 290.656 887.3 292.123 891.742 292.123C896.027 292.123 899.349 290.676 901.708 287.781C904.106 284.847 905.305 280.744 905.305 275.47C905.305 270.197 904.125 266.113 901.767 263.219C899.408 260.324 896.067 258.877 891.742 258.877C887.3 258.877 883.939 260.324 881.659 263.219C879.379 266.113 878.239 270.197 878.239 275.47Z" fill="white" fill-opacity="0.7"/>
<path d="M941.591 296.465V254.535H947.075V291.707H967.773V296.465H941.591Z" fill="white" fill-opacity="0.7"/>
<path d="M1010.73 297C1005.03 297 1000.78 295.553 997.993 292.658C995.241 289.724 993.865 285.422 993.865 279.752V254.535H999.408V279.574C999.408 283.737 1000.31 286.87 1002.12 288.971C1003.93 291.072 1006.8 292.123 1010.73 292.123C1014.5 292.123 1017.33 291.072 1019.22 288.971C1021.15 286.87 1022.11 283.737 1022.11 279.574V254.535H1027.54V279.752C1027.54 285.422 1026.12 289.724 1023.29 292.658C1020.46 295.553 1016.27 297 1010.73 297Z" fill="white" fill-opacity="0.7"/>
<path d="M1069.19 296.465V259.234H1054.8V254.535H1089.18V259.234H1074.73V296.465H1069.19Z" fill="white" fill-opacity="0.7"/>
<path d="M1116.86 296.465V254.535H1122.34V296.465H1116.86Z" fill="white" fill-opacity="0.7"/>
<path d="M1152.69 275.47C1152.69 271.069 1153.46 267.263 1154.99 264.051C1156.53 260.84 1158.73 258.361 1161.6 256.617C1164.51 254.872 1167.97 254 1171.98 254C1175.95 254 1179.37 254.872 1182.24 256.617C1185.14 258.361 1187.39 260.84 1188.96 264.051C1190.53 267.263 1191.32 271.049 1191.32 275.411C1191.32 279.812 1190.53 283.638 1188.96 286.889C1187.39 290.101 1185.14 292.599 1182.24 294.383C1179.37 296.128 1175.95 297 1171.98 297C1167.97 297 1164.53 296.128 1161.66 294.383C1158.79 292.599 1156.56 290.101 1154.99 286.889C1153.46 283.638 1152.69 279.832 1152.69 275.47ZM1158.47 275.47C1158.47 280.704 1159.61 284.788 1161.89 287.722C1164.17 290.656 1167.53 292.123 1171.98 292.123C1176.26 292.123 1179.58 290.676 1181.94 287.781C1184.34 284.847 1185.54 280.744 1185.54 275.47C1185.54 270.197 1184.36 266.113 1182 263.219C1179.64 260.324 1176.3 258.877 1171.98 258.877C1167.53 258.877 1164.17 260.324 1161.89 263.219C1159.61 266.113 1158.47 270.197 1158.47 275.47Z" fill="white" fill-opacity="0.7"/>
<path d="M1221.82 296.465V254.535H1226.07L1252.13 289.268H1250.72V254.535H1255.85V296.465H1251.66L1225.6 261.732H1226.95V296.465H1221.82Z" fill="white" fill-opacity="0.7"/>
<path d="M1301.49 297C1298.15 297 1295.14 296.564 1292.47 295.692C1289.8 294.819 1287.48 293.59 1285.51 292.004L1287.4 287.603C1288.77 288.634 1290.17 289.506 1291.59 290.22C1293 290.894 1294.51 291.409 1296.13 291.766C1297.78 292.083 1299.57 292.242 1301.49 292.242C1304.91 292.242 1307.43 291.627 1309.04 290.398C1310.69 289.13 1311.52 287.464 1311.52 285.402C1311.52 283.618 1310.95 282.25 1309.81 281.299C1308.67 280.347 1306.68 279.594 1303.85 279.039L1297.54 277.73C1293.73 276.937 1290.88 275.649 1288.99 273.864C1287.14 272.041 1286.22 269.582 1286.22 266.49C1286.22 263.992 1286.87 261.811 1288.16 259.947C1289.5 258.044 1291.33 256.577 1293.65 255.546C1296.01 254.515 1298.76 254 1301.9 254C1304.81 254 1307.51 254.436 1309.98 255.308C1312.46 256.181 1314.54 257.469 1316.23 259.174L1314.35 263.397C1312.58 261.771 1310.67 260.602 1308.63 259.888C1306.62 259.135 1304.34 258.758 1301.79 258.758C1298.68 258.758 1296.22 259.432 1294.42 260.78C1292.61 262.128 1291.7 263.952 1291.7 266.252C1291.7 268.076 1292.27 269.523 1293.41 270.593C1294.55 271.624 1296.44 272.417 1299.07 272.972L1305.38 274.221C1309.39 275.014 1312.32 276.263 1314.17 277.968C1316.06 279.673 1317 282.032 1317 285.046C1317 287.425 1316.37 289.526 1315.11 291.35C1313.86 293.134 1312.07 294.522 1309.75 295.513C1307.43 296.504 1304.68 297 1301.49 297Z" fill="white" fill-opacity="0.7"/>
<path d="M413.6 197V56H508.6V76.2H438.4V115.2H504V135.6H438.4V176.6H508.6V197H413.6Z" fill="white"/>
<path d="M597.95 199C583.283 199 570.683 196.067 560.15 190.2C549.75 184.2 541.75 175.8 536.15 165C530.55 154.067 527.75 141.2 527.75 126.4C527.75 111.6 530.55 98.8 536.15 88C541.75 77.2 549.75 68.8667 560.15 63C570.683 57 583.283 54 597.95 54C607.817 54 616.683 55.4 624.55 58.2C632.55 61 639.417 65.1333 645.15 70.6L636.75 91C630.483 85.9333 624.417 82.3333 618.55 80.2C612.817 77.9333 606.217 76.8 598.75 76.8C584.483 76.8 573.55 81.1333 565.95 89.8C558.483 98.3333 554.75 110.533 554.75 126.4C554.75 142.267 558.483 154.533 565.95 163.2C573.55 171.867 584.483 176.2 598.75 176.2C606.217 176.2 612.817 175.133 618.55 173C624.417 170.733 630.483 167 636.75 161.8L645.15 182.2C639.417 187.533 632.55 191.667 624.55 194.6C616.683 197.533 607.817 199 597.95 199Z" fill="white"/>
<path d="M660.172 126.4C660.172 111.6 662.839 98.8 668.172 88C673.639 77.2 681.439 68.8667 691.572 63C701.705 57 713.772 54 727.772 54C741.639 54 753.639 57 763.772 63C773.905 68.8667 781.705 77.2 787.172 88C792.772 98.8 795.572 111.533 795.572 126.2C795.572 141 792.772 153.867 787.172 164.8C781.705 175.6 773.905 184 763.772 190C753.639 196 741.639 199 727.772 199C713.772 199 701.705 196 691.572 190C681.572 184 673.839 175.6 668.372 164.8C662.905 153.867 660.172 141.067 660.172 126.4ZM687.172 126.4C687.172 142.267 690.572 154.667 697.372 163.6C704.172 172.533 714.305 177 727.772 177C740.839 177 750.905 172.533 757.972 163.6C765.039 154.667 768.572 142.267 768.572 126.4C768.572 110.4 765.039 98 757.972 89.2C751.039 80.4 740.972 76 727.772 76C714.305 76 704.172 80.4 697.372 89.2C690.572 98 687.172 110.4 687.172 126.4Z" fill="white"/>
<path d="M846.8 197V77.2H800.2V56H919.2V77.2H872.6V197H846.8Z" fill="#14BE5A"/>
<path d="M937.428 197V56H1032.43V76.2H962.228V115.2H1027.83V135.6H962.228V176.6H1032.43V197H937.428Z" fill="#14BE5A"/>
<path d="M1121.78 199C1107.11 199 1094.51 196.067 1083.98 190.2C1073.58 184.2 1065.58 175.8 1059.98 165C1054.38 154.067 1051.58 141.2 1051.58 126.4C1051.58 111.6 1054.38 98.8 1059.98 88C1065.58 77.2 1073.58 68.8667 1083.98 63C1094.51 57 1107.11 54 1121.78 54C1131.64 54 1140.51 55.4 1148.38 58.2C1156.38 61 1163.24 65.1333 1168.98 70.6L1160.58 91C1154.31 85.9333 1148.24 82.3333 1142.38 80.2C1136.64 77.9333 1130.04 76.8 1122.58 76.8C1108.31 76.8 1097.38 81.1333 1089.78 89.8C1082.31 98.3333 1078.58 110.533 1078.58 126.4C1078.58 142.267 1082.31 154.533 1089.78 163.2C1097.38 171.867 1108.31 176.2 1122.58 176.2C1130.04 176.2 1136.64 175.133 1142.38 173C1148.24 170.733 1154.31 167 1160.58 161.8L1168.98 182.2C1163.24 187.533 1156.38 191.667 1148.38 194.6C1140.51 197.533 1131.64 199 1121.78 199Z" fill="#14BE5A"/>
<path d="M1193.09 197V56H1218.89V114.8H1291.09V56H1316.89V197H1291.09V136.2H1218.89V197H1193.09Z" fill="#14BE5A"/>
</svg>
