<svg width="30" height="31" viewBox="0 0 30 31" fill="none" xmlns="http://www.w3.org/2000/svg">
<g clip-path="url(#clip0_2311_80)">
<path fill-rule="evenodd" clip-rule="evenodd" d="M19.2551 12.3348L11.301 17.3004L12.6112 21.6217C12.7721 22.0469 12.6917 22.2193 13.1399 22.2193L15.6346 19.2896L18.9322 21.7219C19.5643 22.0666 20.024 21.8942 20.1849 21.1357L22.449 10.4705C22.6788 9.5396 22.0927 9.12586 21.4836 9.40169L8.19802 14.5274C7.2901 14.8952 7.30159 15.4009 8.03712 15.6192L11.4505 16.6881L19.3459 11.7117C19.7137 11.4819 20.0585 11.6083 19.7827 11.8611L19.2551 12.3348ZM0 0.880005H30V30.88H0V0.880005Z" fill="#14BE5A"/>
<path d="M19.2551 12.3348L19.7827 11.8611C20.0585 11.6083 19.7137 11.4819 19.3459 11.7117L11.4505 16.6881L8.03712 15.6192C7.30159 15.4009 7.2901 14.8952 8.19802 14.5274L21.4836 9.40169C22.0927 9.12586 22.6788 9.5396 22.449 10.4705L20.1849 21.1357C20.024 21.8942 19.5643 22.0666 18.9322 21.7219L15.6346 19.2896L13.1399 22.2193C12.6917 22.2193 12.7721 22.0469 12.6112 21.6217L11.301 17.3004L19.2551 12.3348Z" fill="white"/>
</g>
<defs>
<clipPath id="clip0_2311_80">
<rect y="0.880005" width="30" height="30" rx="15" fill="white"/>
</clipPath>
</defs>
</svg>
