<svg width="30" height="31" viewBox="0 0 30 31" fill="none" xmlns="http://www.w3.org/2000/svg">
<g clip-path="url(#clip0_2311_74)">
<path fill-rule="evenodd" clip-rule="evenodd" d="M0 0.880005H30V30.88H0V0.880005ZM22.073 10.5255C21.6372 10.8047 20.6365 11.2103 20.143 11.2103C19.5795 10.6217 18.7862 10.255 17.9063 10.255C16.1975 10.255 14.8118 11.6407 14.8118 13.3488C14.8118 13.5862 14.8393 13.8177 14.8902 14.0397C12.5722 13.9788 10.0365 12.817 8.51033 10.8285C7.572 12.4527 8.384 14.259 9.44883 14.9172C9.08433 14.9447 8.41333 14.8752 8.0975 14.567C8.07633 15.645 8.59467 17.0733 10.4847 17.5915C10.1207 17.7873 9.47633 17.7312 9.19617 17.6895C9.2945 18.5995 10.5688 19.7892 11.9623 19.7892C11.4657 20.3637 9.597 21.4057 7.5 21.0742C8.92417 21.9407 10.584 22.4425 12.3408 22.4425C17.3333 22.4425 21.2105 18.3963 21.0018 13.4048C21.001 13.3993 21.001 13.3938 21.0005 13.3878C21.001 13.375 21.0018 13.3622 21.0018 13.3488C21.0018 13.3333 21.0005 13.3187 21 13.3037C21.4545 12.9928 22.0643 12.443 22.5 11.7193C22.2473 11.8585 21.4893 12.1372 20.784 12.2063C21.2367 11.962 21.9073 11.1618 22.073 10.5255Z" fill="#14BE5A"/>
<path d="M22.073 10.5255C21.6372 10.8047 20.6365 11.2103 20.143 11.2103C19.5795 10.6217 18.7862 10.255 17.9063 10.255C16.1975 10.255 14.8118 11.6407 14.8118 13.3488C14.8118 13.5862 14.8393 13.8177 14.8902 14.0397C12.5722 13.9788 10.0365 12.817 8.51033 10.8285C7.572 12.4527 8.384 14.259 9.44883 14.9172C9.08433 14.9447 8.41333 14.8752 8.0975 14.567C8.07633 15.645 8.59467 17.0733 10.4847 17.5915C10.1207 17.7873 9.47633 17.7312 9.19617 17.6895C9.2945 18.5995 10.5688 19.7892 11.9623 19.7892C11.4657 20.3637 9.597 21.4057 7.5 21.0742C8.92417 21.9407 10.584 22.4425 12.3408 22.4425C17.3333 22.4425 21.2105 18.3963 21.0018 13.4048C21.001 13.3993 21.001 13.3938 21.0005 13.3878C21.001 13.375 21.0018 13.3622 21.0018 13.3488C21.0018 13.3333 21.0005 13.3187 21 13.3037C21.4545 12.9928 22.0643 12.443 22.5 11.7193C22.2473 11.8585 21.4893 12.1372 20.784 12.2063C21.2367 11.962 21.9073 11.1618 22.073 10.5255Z" fill="white"/>
</g>
<defs>
<clipPath id="clip0_2311_74">
<rect y="0.880005" width="30" height="30" rx="15" fill="white"/>
</clipPath>
</defs>
</svg>
