<svg width="30" height="31" viewBox="0 0 30 31" fill="none" xmlns="http://www.w3.org/2000/svg" xmlns:xlink="http://www.w3.org/1999/xlink">
<g clip-path="url(#clip1_0_1)">
<path fill-rule="evenodd" clip-rule="evenodd" d="M0 0.880005H30V30.88H0V0.880005ZM23.2799 11.6495C23.1378 10.4054 22.8412 10.0427 22.6311 9.87393C22.2975 9.61135 21.6919 9.51757 20.8825 9.4613C19.5849 9.37377 17.3789 9.3175 15 9.3175C12.6149 9.3175 10.4151 9.36752 9.11754 9.4613C8.30808 9.51757 7.70254 9.61135 7.36887 9.87393C7.15878 10.0427 6.86836 10.4054 6.72007 11.6495C6.50998 13.4438 6.50998 17.5326 6.72007 19.3269C6.86836 20.5711 7.15878 20.9337 7.36887 21.1025C7.70254 21.3651 8.30808 21.4589 9.11754 21.5151C10.4151 21.6027 12.6149 21.6589 15 21.6589C17.3851 21.6589 19.5849 21.6027 20.8825 21.5151C21.6919 21.4589 22.2975 21.3651 22.6311 21.1025C22.8412 20.9399 23.1316 20.5711 23.2799 19.3269C23.49 17.5326 23.49 13.4438 23.2799 11.6495ZM12.9609 18.1703V12.7999L18.0525 15.482L12.9609 18.1703Z" fill="#14BE5A"/>
<path d="M23.2799 11.6495C23.1378 10.4054 22.8412 10.0427 22.6311 9.87393C22.2975 9.61135 21.6919 9.51757 20.8825 9.4613C19.5849 9.37377 17.3789 9.3175 15 9.3175C12.6149 9.3175 10.4151 9.36752 9.11754 9.4613C8.30808 9.51757 7.70254 9.61135 7.36887 9.87393C7.15878 10.0427 6.86836 10.4054 6.72007 11.6495C6.50998 13.4438 6.50998 17.5326 6.72007 19.3269C6.86836 20.5711 7.15878 20.9337 7.36887 21.1025C7.70254 21.3651 8.30808 21.4589 9.11754 21.5151C10.4151 21.6027 12.6149 21.6589 15 21.6589C17.3851 21.6589 19.5849 21.6027 20.8825 21.5151C21.6919 21.4589 22.2975 21.3651 22.6311 21.1025C22.8412 20.9399 23.1316 20.5711 23.2799 19.3269C23.49 17.5326 23.49 13.4438 23.2799 11.6495ZM12.9609 18.1703V12.7999L18.0525 15.482L12.9609 18.1703Z" fill="white"/>
</g>
<defs>
<clipPath id="clip1_0_1">
<rect y="0.880005" width="30" height="30" rx="15" fill="white"/>
</clipPath>
</defs>
</svg>
